# xmcd
#
# Track frame offsets: 
#        150
#        1505
#        18090
#        33100
#        60945
#        82165
#        102705
#        119620
#        136827
#        158220
#        177640
#        195707
#        211797
#        230887
#        248135
#
# Disc length: 3624 seconds
#
# Revision: 0
# Processed by: cddbd v1.5.2PL0 Copyright (c) Steve Scherf et al.
# Submitted via: ExactAudioCopyFreeDBPlugin 1.0
#
DISCID=c20e260f
DTITLE=Swinging Steaks - Bare
DYEAR=1997
DGENRE=Country
TTITLE0=intro
TTITLE1=Saddle Up
TTITLE2=Own Worst Enemy
TTITLE3=Circlin'
TTITLE4=Still A Little
TTITLE5=This High
TTITLE6=Come My Way
TTITLE7=He Stopped Loving Her Today
TTITLE8=White Freightliner Blues
TTITLE9=The Good One
TTITLE10=Train Wreck
TTITLE11=Taken By Storm
TTITLE12=Family Tree
TTITLE13=Suicide At The Wishing Well
TTITLE14=Mountain
EXTD=
EXTT0=
EXTT1=
EXTT2=
EXTT3=
EXTT4=
EXTT5=
EXTT6=
EXTT7=
EXTT8=
EXTT9=
EXTT10=
EXTT11=
EXTT12=
EXTT13=
EXTT14=
PLAYORDER=
